<svg width="18" height="14" viewBox="0 0 18 14" fill="none" xmlns="http://www.w3.org/2000/svg">
<path d="M6.33333 12.1867C7.06971 12.1867 7.66667 11.7449 7.66667 11.2C7.66667 10.6551 7.06971 10.2133 6.33333 10.2133C5.59695 10.2133 5 10.6551 5 11.2C5 11.7449 5.59695 12.1867 6.33333 12.1867Z" stroke="white" stroke-width="1.8" stroke-linecap="round" stroke-linejoin="round"/>
<path d="M14.3333 12.1867C15.0697 12.1867 15.6667 11.7449 15.6667 11.2C15.6667 10.6551 15.0697 10.2133 14.3333 10.2133C13.597 10.2133 13 10.6551 13 11.2C13 11.7449 13.597 12.1867 14.3333 12.1867Z" stroke="white" stroke-width="1.8" stroke-linecap="round" stroke-linejoin="round"/>
<path d="M4.78002 3.79999H16.3334L15.2134 7.93906C15.1524 8.16619 14.9854 8.37021 14.7417 8.51542C14.4979 8.66063 14.1929 8.73776 13.88 8.73333H6.83335C6.50781 8.73537 6.1925 8.64921 5.94689 8.49108C5.70128 8.33295 5.54233 8.11379 5.50002 7.87493L4.48669 2.19173C4.44466 1.95455 4.28764 1.73675 4.04482 1.57884C3.80201 1.42094 3.48994 1.33369 3.16669 1.33333H1.66669" stroke="white" stroke-width="1.8" stroke-linecap="round" stroke-linejoin="round"/>
</svg>
