<svg width="43" height="43" viewBox="0 0 43 43" fill="none" xmlns="http://www.w3.org/2000/svg">
<path d="M33.5938 20.8281C33.5938 27.5066 28.1784 32.9219 21.5 32.9219C14.8216 32.9219 9.40625 27.5066 9.40625 20.8281C9.40625 14.1497 21.5 2.01562 21.5 2.01562C21.5 2.01562 33.5938 14.1497 33.5938 20.8281Z" fill="#FEAC99"/>
<path d="M21.1909 32.9152C14.6536 32.7539 9.40625 27.4058 9.40625 20.8281C9.40625 19.1014 10.2192 17.0052 11.4219 14.8484C11.4353 17.1059 11.9123 19.397 13.545 20.5795C15.0298 21.6545 15.8495 22.9378 16.293 24.1069C15.7823 25.1281 15.4531 26.0956 15.4531 26.875C15.4531 30.1067 17.9928 32.7539 21.1909 32.9152Z" fill="#F76C5E"/>
<path d="M21.8091 32.9152C28.3464 32.7539 33.5938 27.4058 33.5938 20.8281C33.5938 19.1014 32.7808 17.0052 31.5781 14.8484C31.5647 17.1059 31.0877 19.397 29.455 20.5795C27.9702 21.6545 27.1505 22.9378 26.707 24.1069C27.2177 25.1281 27.5469 26.0956 27.5469 26.875C27.5469 30.1067 25.0072 32.7539 21.8091 32.9152Z" fill="#F76C5E"/>
<path d="M20.5123 17.9525C21.1036 17.2403 21.5 16.7969 21.5 16.7969C21.5 16.7969 21.8964 17.2403 22.4877 17.9525C22.8706 16.6423 23.6903 15.1105 25.4237 13.8608C26.8683 12.8127 27.4125 10.8911 27.5267 8.88891C24.51 5.03906 21.5 2.01562 21.5 2.01562C21.5 2.01562 18.49 5.03906 15.4733 8.88891C15.5875 10.8911 16.1317 12.8127 17.5763 13.8608C19.3097 15.1105 20.1294 16.6423 20.5123 17.9525Z" fill="#FD5933"/>
<path d="M24.0195 32.6531C23.2066 32.8278 22.3667 32.9219 21.5 32.9219C20.6333 32.9219 19.7934 32.8278 18.9805 32.6531C19.2559 34.2186 19.4844 36.7852 19.4844 40.9844H23.5156C23.5156 36.7852 23.7441 34.2186 24.0195 32.6531Z" fill="#606C38"/>
<path d="M27.5469 26.875C27.5469 30.2142 24.8392 32.9219 21.5 32.9219C18.1608 32.9219 15.4531 30.2142 15.4531 26.875C15.4531 23.5358 21.5 16.7969 21.5 16.7969C21.5 16.7969 27.5469 23.5358 27.5469 26.875Z" fill="#FD8266"/>
<path d="M24.0195 32.6531C26.7608 32.0753 29.1594 30.5703 30.8659 28.4741C32.7539 29.3878 35.0987 29.0653 36.6642 27.4998C38.5858 25.5783 38.653 22.5078 36.8456 20.5258C36.7919 20.4586 36.7314 20.3981 36.6642 20.3377C36.6037 20.2705 36.5433 20.21 36.4761 20.1562L36.8456 20.5258C40.635 24.4898 40.5678 30.7652 36.6642 34.6553C33.1302 38.1894 27.6275 38.5656 23.6634 35.7908C23.7575 34.447 23.8784 33.4258 24.0195 32.6531Z" fill="#FEAC99"/>
<path d="M18.9805 32.6531C16.2392 32.0753 13.8406 30.5703 12.1341 28.4741C10.2461 29.3878 7.90125 29.0653 6.33579 27.4998C4.41422 25.5783 4.34704 22.5078 6.15438 20.5258L6.52391 20.1562C6.45672 20.21 6.39626 20.2705 6.33579 20.3377C6.2686 20.3981 6.20813 20.4586 6.15438 20.5258C2.365 24.4898 2.43219 30.7652 6.33579 34.6553C9.86985 38.1894 15.3725 38.5656 19.3366 35.7908C19.2425 34.447 19.1216 33.4258 18.9805 32.6531Z" fill="#FEAC99"/>
</svg>
